v -0.941236 -2.89021 -0.700226
vn -0.163609 -0.445602 0.880154
vt 0.93528 0.708081
v -0.712854 -1.24885 0.173215
vn -0.108125 -0.174077 0.978778
vt 0.704833 0.598085
v -0.415335 -1.31717 0.193931
vn -0.0984648 -0.129618 0.986663
vt 0.646908 0.692083
v -0.254899 -1.53594 0.561057
vn -0.00256909 0.0368747 0.999317
vt 0.508577 0.702936
v -0.0082245 0.00849895 -0.0142912
vn -0.030908 0.164349 0.985918
vt 0.531109 0.475304
v -6.07222e-007 -3.744 -0.105375
vn -0.0262573 -0.291621 0.956174
vt 0.195527 0.979757
v 0.00160727 0.00390768 -0.00328517
vn 0.0198933 0.34112 0.939809
vt 0.495995 0.558827
v 0.00955625 0.0171314 -0.0119946
vn 0.295426 0.413288 0.861346
vt 0.476708 0.361488
v 0.273712 -1.57442 0.563836
vn -0.00487741 0.00521518 0.999975
vt 0.396034 0.652734
v 0.292092 -0.872187 0.31781
vn 0.204633 0.252291 0.945767
vt 0.457429 0.436161
v 0.527273 -3.1989 -0.192509
vn -0.241414 -0.23112 0.942498
vt 0.173656 0.510002
v 0.757631 -1.0196 0.228869
vn 0.333713 0.139199 0.932341
vt 0.396548 0.347129
v 0.825769 -1.68899 0.254211
vn 0.125008 -0.0864795 0.98838
vt 0.304748 0.40586
v 2.34122 -1.89147 -0.773544
vn 0.567162 0.0887299 0.818813
vt 0.174049 0.237486
f 10/10/10 11/11/11 13/13/13
f 13/13/13 14/14/14 12/12/12
f 10/10/10 13/13/13 12/12/12
f 5/5/5 2/2/2 3/3/3
f 8/8/8 10/10/10 12/12/12
f 1/1/1 3/3/3 2/2/2
f 4/4/4 6/6/6 9/9/9
f 9/9/9 7/7/7 4/4/4
