v -0.254899 -1.53594 0.561057
vn -0.00256909 0.0368747 0.999317
vt 0.508577 0.702936
v -6.07222e-007 -3.744 -0.105375
vn -0.0262573 -0.291621 0.956174
vt 0.195527 0.979757
v 0.00160727 0.00390768 -0.00328517
vn 0.0198933 0.34112 0.939809
vt 0.495995 0.558827
v 0.00955625 0.0171314 -0.0119946
vn 0.295426 0.413288 0.861346
vt 0.476708 0.361488
v 0.273712 -1.57442 0.563836
vn -0.00487741 0.00521518 0.999975
vt 0.396034 0.652734
v 0.292092 -0.872187 0.31781
vn 0.276662 0.328952 0.902911
vt 0.457429 0.436161
v 0.757631 -1.0196 0.228869
vn 0.333713 0.139199 0.932341
vt 0.396548 0.347129
v 0.825769 -1.68899 0.254211
vn 0.494636 0.0831004 0.865118
vt 0.304748 0.40586
v 2.34122 -1.89147 -0.773544
vn 0.567162 0.0887299 0.818813
vt 0.174049 0.237486
f 4/4/4 6/6/6 7/7/7
f 1/1/1 2/2/2 5/5/5
f 5/5/5 3/3/3 1/1/1
f 8/8/8 9/9/9 7/7/7
f 8/8/8 7/7/7 6/6/6
